<?xml version="1.0" standalone="yes"?>
<!-- SVG graphic -->
<svg xmlns='http://www.w3.org/2000/svg' xmlns:xlink='http://www.w3.org/1999/xlink'
 version="1.1">
<rect x="0" y="0" width="6" height="200" stroke="black" stroke-width="1" fill="blue" tooltip="enable"><title>(0,3674)</title></rect><rect x="6" y="4.40936" width="6" height="195.591" stroke="black" stroke-width="1" fill="blue" tooltip="enable"><title>(0.0393423,3593)</title></rect><rect x="12" y="14.5346" width="6" height="185.465" stroke="black" stroke-width="1" fill="blue" tooltip="enable"><title>(0.0786847,3407)</title></rect><rect x="18" y="28.797" width="6" height="171.203" stroke="black" stroke-width="1" fill="blue" tooltip="enable"><title>(0.118027,3145)</title></rect><rect x="24" y="45.2912" width="6" height="154.709" stroke="black" stroke-width="1" fill="blue" tooltip="enable"><title>(0.157369,2842)</title></rect><rect x="30" y="53.5656" width="6" height="146.434" stroke="black" stroke-width="1" fill="blue" tooltip="enable"><title>(0.196712,2690)</title></rect><rect x="36" y="78.3342" width="6" height="121.666" stroke="black" stroke-width="1" fill="blue" tooltip="enable"><title>(0.236054,2235)</title></rect><rect x="42" y="81.4371" width="6" height="118.563" stroke="black" stroke-width="1" fill="blue" tooltip="enable"><title>(0.275396,2178)</title></rect><rect x="48" y="100.327" width="6" height="99.6734" stroke="black" stroke-width="1" fill="blue" tooltip="enable"><title>(0.314739,1831)</title></rect><rect x="54" y="108.111" width="6" height="91.889" stroke="black" stroke-width="1" fill="blue" tooltip="enable"><title>(0.354081,1688)</title></rect><rect x="60" y="123.027" width="6" height="76.9733" stroke="black" stroke-width="1" fill="blue" tooltip="enable"><title>(0.393423,1414)</title></rect><rect x="66" y="128.851" width="6" height="71.1486" stroke="black" stroke-width="1" fill="blue" tooltip="enable"><title>(0.432766,1307)</title></rect><rect x="72" y="135.819" width="6" height="64.1807" stroke="black" stroke-width="1" fill="blue" tooltip="enable"><title>(0.472108,1179)</title></rect><rect x="78" y="147.033" width="6" height="52.9668" stroke="black" stroke-width="1" fill="blue" tooltip="enable"><title>(0.51145,973)</title></rect><rect x="84" y="148.938" width="6" height="51.0615" stroke="black" stroke-width="1" fill="blue" tooltip="enable"><title>(0.550793,938)</title></rect><rect x="90" y="155.797" width="6" height="44.2025" stroke="black" stroke-width="1" fill="blue" tooltip="enable"><title>(0.590135,812)</title></rect><rect x="96" y="158.356" width="6" height="41.644" stroke="black" stroke-width="1" fill="blue" tooltip="enable"><title>(0.629478,765)</title></rect><rect x="102" y="163.201" width="6" height="36.7991" stroke="black" stroke-width="1" fill="blue" tooltip="enable"><title>(0.66882,676)</title></rect><rect x="108" y="166.794" width="6" height="33.2063" stroke="black" stroke-width="1" fill="blue" tooltip="enable"><title>(0.708162,610)</title></rect><rect x="114" y="171.584" width="6" height="28.4159" stroke="black" stroke-width="1" fill="blue" tooltip="enable"><title>(0.747505,522)</title></rect><rect x="120" y="172.945" width="6" height="27.055" stroke="black" stroke-width="1" fill="blue" tooltip="enable"><title>(0.786847,497)</title></rect><rect x="126" y="176.266" width="6" height="23.7344" stroke="black" stroke-width="1" fill="blue" tooltip="enable"><title>(0.826189,436)</title></rect><rect x="132" y="180.022" width="6" height="19.9782" stroke="black" stroke-width="1" fill="blue" tooltip="enable"><title>(0.865532,367)</title></rect><rect x="138" y="179.369" width="6" height="20.6315" stroke="black" stroke-width="1" fill="blue" tooltip="enable"><title>(0.904874,379)</title></rect><rect x="144" y="181.6" width="6" height="18.3996" stroke="black" stroke-width="1" fill="blue" tooltip="enable"><title>(0.944216,338)</title></rect><rect x="150" y="184.05" width="6" height="15.9499" stroke="black" stroke-width="1" fill="blue" tooltip="enable"><title>(0.983559,293)</title></rect><rect x="156" y="183.125" width="6" height="16.8753" stroke="black" stroke-width="1" fill="blue" tooltip="enable"><title>(1.0229,310)</title></rect><rect x="162" y="186.935" width="6" height="13.0648" stroke="black" stroke-width="1" fill="blue" tooltip="enable"><title>(1.06224,240)</title></rect><rect x="168" y="187.643" width="6" height="12.3571" stroke="black" stroke-width="1" fill="blue" tooltip="enable"><title>(1.10159,227)</title></rect><rect x="174" y="188.078" width="6" height="11.9216" stroke="black" stroke-width="1" fill="blue" tooltip="enable"><title>(1.14093,219)</title></rect><rect x="180" y="189.711" width="6" height="10.2885" stroke="black" stroke-width="1" fill="blue" tooltip="enable"><title>(1.18027,189)</title></rect><rect x="186" y="190.746" width="6" height="9.25422" stroke="black" stroke-width="1" fill="blue" tooltip="enable"><title>(1.21961,170)</title></rect><rect x="192" y="190.528" width="6" height="9.47197" stroke="black" stroke-width="1" fill="blue" tooltip="enable"><title>(1.25896,174)</title></rect><rect x="198" y="192.324" width="6" height="7.67556" stroke="black" stroke-width="1" fill="blue" tooltip="enable"><title>(1.2983,141)</title></rect><rect x="204" y="192.651" width="6" height="7.34894" stroke="black" stroke-width="1" fill="blue" tooltip="enable"><title>(1.33764,135)</title></rect><rect x="210" y="193.141" width="6" height="6.85901" stroke="black" stroke-width="1" fill="blue" tooltip="enable"><title>(1.37698,126)</title></rect><rect x="216" y="193.468" width="6" height="6.53239" stroke="black" stroke-width="1" fill="blue" tooltip="enable"><title>(1.41632,120)</title></rect><rect x="222" y="193.631" width="6" height="6.36908" stroke="black" stroke-width="1" fill="blue" tooltip="enable"><title>(1.45567,117)</title></rect><rect x="228" y="193.522" width="6" height="6.47795" stroke="black" stroke-width="1" fill="blue" tooltip="enable"><title>(1.49501,119)</title></rect><rect x="234" y="194.883" width="6" height="5.11704" stroke="black" stroke-width="1" fill="blue" tooltip="enable"><title>(1.53435,94)</title></rect><rect x="240" y="195.046" width="6" height="4.95373" stroke="black" stroke-width="1" fill="blue" tooltip="enable"><title>(1.57369,91)</title></rect><rect x="246" y="194.829" width="6" height="5.17148" stroke="black" stroke-width="1" fill="blue" tooltip="enable"><title>(1.61304,95)</title></rect><rect x="252" y="194.937" width="6" height="5.0626" stroke="black" stroke-width="1" fill="blue" tooltip="enable"><title>(1.65238,93)</title></rect><rect x="258" y="196.026" width="6" height="3.97387" stroke="black" stroke-width="1" fill="blue" tooltip="enable"><title>(1.69172,73)</title></rect><rect x="264" y="196.843" width="6" height="3.15732" stroke="black" stroke-width="1" fill="blue" tooltip="enable"><title>(1.73106,58)</title></rect><rect x="270" y="196.516" width="6" height="3.48394" stroke="black" stroke-width="1" fill="blue" tooltip="enable"><title>(1.77041,64)</title></rect><rect x="276" y="196.734" width="6" height="3.2662" stroke="black" stroke-width="1" fill="blue" tooltip="enable"><title>(1.80975,60)</title></rect><rect x="282" y="197.006" width="6" height="2.99401" stroke="black" stroke-width="1" fill="blue" tooltip="enable"><title>(1.84909,55)</title></rect><rect x="288" y="196.952" width="6" height="3.04845" stroke="black" stroke-width="1" fill="blue" tooltip="enable"><title>(1.88843,56)</title></rect><rect x="294" y="197.605" width="6" height="2.39521" stroke="black" stroke-width="1" fill="blue" tooltip="enable"><title>(1.92777,44)</title></rect><rect x="300" y="197.986" width="6" height="2.01415" stroke="black" stroke-width="1" fill="blue" tooltip="enable"><title>(1.96712,37)</title></rect><rect x="306" y="197.441" width="6" height="2.55852" stroke="black" stroke-width="1" fill="blue" tooltip="enable"><title>(2.00646,47)</title></rect><rect x="312" y="197.659" width="6" height="2.34077" stroke="black" stroke-width="1" fill="blue" tooltip="enable"><title>(2.0458,43)</title></rect><rect x="318" y="198.585" width="6" height="1.41535" stroke="black" stroke-width="1" fill="blue" tooltip="enable"><title>(2.08514,26)</title></rect><rect x="324" y="197.931" width="6" height="2.06859" stroke="black" stroke-width="1" fill="blue" tooltip="enable"><title>(2.12449,38)</title></rect><rect x="330" y="198.748" width="6" height="1.25204" stroke="black" stroke-width="1" fill="blue" tooltip="enable"><title>(2.16383,23)</title></rect><rect x="336" y="198.476" width="6" height="1.52422" stroke="black" stroke-width="1" fill="blue" tooltip="enable"><title>(2.20317,28)</title></rect><rect x="342" y="198.694" width="6" height="1.30648" stroke="black" stroke-width="1" fill="blue" tooltip="enable"><title>(2.24251,24)</title></rect><rect x="348" y="198.911" width="6" height="1.08873" stroke="black" stroke-width="1" fill="blue" tooltip="enable"><title>(2.28186,20)</title></rect><rect x="354" y="198.857" width="6" height="1.14317" stroke="black" stroke-width="1" fill="blue" tooltip="enable"><title>(2.3212,21)</title></rect><rect x="360" y="199.075" width="6" height="0.925422" stroke="black" stroke-width="1" fill="blue" tooltip="enable"><title>(2.36054,17)</title></rect><rect x="366" y="198.802" width="6" height="1.1976" stroke="black" stroke-width="1" fill="blue" tooltip="enable"><title>(2.39988,22)</title></rect><rect x="372" y="198.911" width="6" height="1.08873" stroke="black" stroke-width="1" fill="blue" tooltip="enable"><title>(2.43923,20)</title></rect><rect x="378" y="198.585" width="6" height="1.41535" stroke="black" stroke-width="1" fill="blue" tooltip="enable"><title>(2.47857,26)</title></rect><rect x="384" y="199.238" width="6" height="0.762112" stroke="black" stroke-width="1" fill="blue" tooltip="enable"><title>(2.51791,14)</title></rect><rect x="390" y="199.238" width="6" height="0.762112" stroke="black" stroke-width="1" fill="blue" tooltip="enable"><title>(2.55725,14)</title></rect><rect x="396" y="199.456" width="6" height="0.544366" stroke="black" stroke-width="1" fill="blue" tooltip="enable"><title>(2.59659,10)</title></rect><rect x="402" y="199.51" width="6" height="0.489929" stroke="black" stroke-width="1" fill="blue" tooltip="enable"><title>(2.63594,9)</title></rect><rect x="408" y="199.51" width="6" height="0.489929" stroke="black" stroke-width="1" fill="blue" tooltip="enable"><title>(2.67528,9)</title></rect><rect x="414" y="199.51" width="6" height="0.489929" stroke="black" stroke-width="1" fill="blue" tooltip="enable"><title>(2.71462,9)</title></rect><rect x="420" y="199.619" width="6" height="0.381056" stroke="black" stroke-width="1" fill="blue" tooltip="enable"><title>(2.75396,7)</title></rect><rect x="426" y="199.292" width="6" height="0.707676" stroke="black" stroke-width="1" fill="blue" tooltip="enable"><title>(2.79331,13)</title></rect><rect x="432" y="199.51" width="6" height="0.489929" stroke="black" stroke-width="1" fill="blue" tooltip="enable"><title>(2.83265,9)</title></rect><rect x="438" y="199.51" width="6" height="0.489929" stroke="black" stroke-width="1" fill="blue" tooltip="enable"><title>(2.87199,9)</title></rect><rect x="444" y="199.673" width="6" height="0.32662" stroke="black" stroke-width="1" fill="blue" tooltip="enable"><title>(2.91133,6)</title></rect><rect x="450" y="199.075" width="6" height="0.925422" stroke="black" stroke-width="1" fill="blue" tooltip="enable"><title>(2.95068,17)</title></rect><rect x="456" y="199.728" width="6" height="0.272183" stroke="black" stroke-width="1" fill="blue" tooltip="enable"><title>(2.99002,5)</title></rect><rect x="462" y="199.728" width="6" height="0.272183" stroke="black" stroke-width="1" fill="blue" tooltip="enable"><title>(3.02936,5)</title></rect><rect x="468" y="199.673" width="6" height="0.32662" stroke="black" stroke-width="1" fill="blue" tooltip="enable"><title>(3.0687,6)</title></rect><rect x="474" y="199.673" width="6" height="0.32662" stroke="black" stroke-width="1" fill="blue" tooltip="enable"><title>(3.10805,6)</title></rect><rect x="480" y="199.728" width="6" height="0.272183" stroke="black" stroke-width="1" fill="blue" tooltip="enable"><title>(3.14739,5)</title></rect><rect x="486" y="199.728" width="6" height="0.272183" stroke="black" stroke-width="1" fill="blue" tooltip="enable"><title>(3.18673,5)</title></rect><rect x="492" y="199.728" width="6" height="0.272183" stroke="black" stroke-width="1" fill="blue" tooltip="enable"><title>(3.22607,5)</title></rect><rect x="498" y="199.837" width="6" height="0.16331" stroke="black" stroke-width="1" fill="blue" tooltip="enable"><title>(3.26541,3)</title></rect><rect x="504" y="199.891" width="6" height="0.108873" stroke="black" stroke-width="1" fill="blue" tooltip="enable"><title>(3.30476,2)</title></rect><rect x="510" y="199.837" width="6" height="0.16331" stroke="black" stroke-width="1" fill="blue" tooltip="enable"><title>(3.3441,3)</title></rect><rect x="516" y="199.673" width="6" height="0.32662" stroke="black" stroke-width="1" fill="blue" tooltip="enable"><title>(3.38344,6)</title></rect><rect x="522" y="199.728" width="6" height="0.272183" stroke="black" stroke-width="1" fill="blue" tooltip="enable"><title>(3.42278,5)</title></rect><rect x="528" y="200" width="6" height="0" stroke="black" stroke-width="1" fill="blue" tooltip="enable"><title>(3.46213,0)</title></rect><rect x="534" y="199.946" width="6" height="0.0544366" stroke="black" stroke-width="1" fill="blue" tooltip="enable"><title>(3.50147,1)</title></rect><rect x="540" y="199.837" width="6" height="0.16331" stroke="black" stroke-width="1" fill="blue" tooltip="enable"><title>(3.54081,3)</title></rect><rect x="546" y="199.837" width="6" height="0.16331" stroke="black" stroke-width="1" fill="blue" tooltip="enable"><title>(3.58015,3)</title></rect><rect x="552" y="199.891" width="6" height="0.108873" stroke="black" stroke-width="1" fill="blue" tooltip="enable"><title>(3.6195,2)</title></rect><rect x="558" y="199.946" width="6" height="0.0544366" stroke="black" stroke-width="1" fill="blue" tooltip="enable"><title>(3.65884,1)</title></rect><rect x="564" y="199.891" width="6" height="0.108873" stroke="black" stroke-width="1" fill="blue" tooltip="enable"><title>(3.69818,2)</title></rect><rect x="570" y="200" width="6" height="0" stroke="black" stroke-width="1" fill="blue" tooltip="enable"><title>(3.73752,0)</title></rect><rect x="576" y="199.946" width="6" height="0.0544366" stroke="black" stroke-width="1" fill="blue" tooltip="enable"><title>(3.77687,1)</title></rect><rect x="582" y="199.946" width="6" height="0.0544366" stroke="black" stroke-width="1" fill="blue" tooltip="enable"><title>(3.81621,1)</title></rect><rect x="588" y="200" width="6" height="0" stroke="black" stroke-width="1" fill="blue" tooltip="enable"><title>(3.85555,0)</title></rect><rect x="594" y="200" width="6" height="0" stroke="black" stroke-width="1" fill="blue" tooltip="enable"><title>(3.89489,0)</title></rect><text x="30" y="240" font-size="20" fill="black">0</text>
<text x="600" y="240" font-size="20" fill="black">3.93423</text>
<polyline points="0,220,600,220" stroke="black" stroke-width="1" fill="none"/>
<text x="720" y="20" font-size="20" fill="black">3674</text>
<text x="720" y="200" font-size="20" fill="black">0</text>
<polyline points="660,0,660,200" stroke="black" stroke-width="1" fill="none"/>
</svg>